<?xml version="1.0" encoding="utf-8"?>
<!-- Generator: Adobe Illustrator 25.0.0, SVG Export Plug-In . SVG Version: 6.00 Build 0)  -->
<svg version="1.1" id="Layer_1" xmlns="http://www.w3.org/2000/svg" xmlns:xlink="http://www.w3.org/1999/xlink" x="0px" y="0px"
	 viewBox="0 0 1000 1000" style="enable-background:new 0 0 1000 1000;" xml:space="preserve">
<style type="text/css">
	.st0{fill:#6B4984;stroke:#6B4984;stroke-width:10;stroke-miterlimit:10;}
</style>
<path class="st0" d="M635.1,491.2C559,336.1,564.5,152.3,635.3,7.6c-72.2-0.3-143.2,22-205.7,64.5
	c-139.9,95.2-214,272.4-204.4,450.2c32.9,1.2,64.5,15.2,89.9,40c23.8-15.6,50.7-23.8,77.9-23.7c73.5,0,137,58.3,156.9,139.6
	c52.6,19,88.5,76.3,88.3,141.1c0,69.1-40.6,126.9-95.1,143.3c97.7,26.5,203.9,11.7,297.7-52.1c62.5-42.5,114.4-103.8,150.3-177.6
	C849.1,732.7,711.3,646.3,635.1,491.2z"/>
<path class="st0" d="M607.8,802.5c0-52.7-38.9-95.5-88.3-100.3c-8.6-70.6-65.8-125.4-136-125.4c-33.6,0-63.8,12.9-87.8,33.4
	c-22.5-29.9-57-49.3-96.3-49.3c-57.4,0-107.1,41.5-119.6,99.8C16,665.4-34.4,720-34.4,787.5c0,70.4,54.9,127.5,122.7,127.5
	c14-0.1,27.8-2.8,40.9-7.8c22.4,31.9,58.2,52.8,99.1,52.8c24,0,47.5-7.4,67.6-21.1c22.9,23.2,53.5,36.2,85.4,36.2
	c49,0,90.9-30.1,110.6-73.3c6.1,1.3,12.4,2,18.6,2C564.2,903.7,607.7,858.4,607.8,802.5z"/>
<polygon class="st0" points="914.2,543 933.2,501 978.4,493.1 944.6,461.9 950.9,416.3 910.9,439 869.6,418.9 878.8,464.1 
	846.8,497.2 892.5,502.4 "/>
<polygon class="st0" points="0.5,430.4 33,413.6 65.2,430.9 59.4,394.7 85.7,369.4 49.7,363.9 33.7,331 17.2,363.7 -18.9,368.5 
	7,394.3 "/>
<polygon class="st0" points="739.3,348.8 754,376.6 767.1,347.8 798.2,342.4 774.9,321 779.2,289.7 751.8,305.3 723.5,291.5 
	729.8,322.4 707.9,345.2 "/>
<polygon class="st0" points="888.6,266.2 897.8,283.2 905.8,265.6 924.8,262.2 910.5,249.1 913.2,230 896.4,239.6 879,231 
	882.9,250 869.4,264 "/>
<polygon class="st0" points="202.5,151.2 211.7,168.2 219.6,150.6 238.7,147.1 224.4,134.1 227.1,114.9 210.3,124.5 192.9,116.1 
	196.7,134.9 183.3,148.9 "/>
</svg>
