<?xml version="1.0" encoding="utf-8"?>
<!-- Generator: Adobe Illustrator 25.0.0, SVG Export Plug-In . SVG Version: 6.00 Build 0)  -->
<svg version="1.1" id="Layer_1" xmlns="http://www.w3.org/2000/svg" xmlns:xlink="http://www.w3.org/1999/xlink" x="0px" y="0px"
	 viewBox="0 0 990 990" style="enable-background:new 0 0 990 990;" xml:space="preserve">
<style type="text/css">
	.st0{fill:none;stroke:#141852;stroke-width:10;stroke-miterlimit:10;}
</style>
<path class="st0" d="M495,5C224.3,5,5,224.3,5,495s219.3,490,490,490s490-219.3,490-490S765.7,5,495,5z M781.4,745.9
	c-0.9,1.1-5.7,7-7.4,8.7c-72,77.7-173.1,121.7-279,121.5c-210.6,0-381.1-170.5-381.1-381.1c-0.1-106.7,44.6-208.6,123.3-280.7
	c0,0,6.1-5.9,7.8-7.2c5.8-4.4,12.8-6.8,20-6.8c18,0,32.7,14.6,32.7,32.6c0,0,0,0.1,0,0.1c0,2.4-2.8,15.9-2.8,15.9
	c-4.5,23.7-6.8,47.8-6.8,71.9c0,210.6,170.5,381.1,381.1,381.1c23.2,0,46.4-2.1,69.3-6.3l10.5-2.4c2.4-0.5,4.9-0.7,7.4-0.8
	c17.9-0.1,32.6,14.4,32.7,32.3C789.1,732.5,786.4,740,781.4,745.9L781.4,745.9z"/>
</svg>
