<?xml version="1.0" encoding="utf-8"?>
<!-- Generator: Adobe Illustrator 25.0.0, SVG Export Plug-In . SVG Version: 6.00 Build 0)  -->
<svg version="1.1" id="Layer_1" xmlns="http://www.w3.org/2000/svg" xmlns:xlink="http://www.w3.org/1999/xlink" x="0px" y="0px"
	 viewBox="0 0 1000 1000" style="enable-background:new 0 0 1000 1000;" xml:space="preserve">
<style type="text/css">
	.st0{fill:none;stroke:#FFA700;stroke-width:10;stroke-miterlimit:10;}
</style>
<path class="st0" d="M494.1,10.9c-2.9,1.4-5.3,3.5-6.9,6.3c-1.5,2.8-2.4,26.9-2.4,68.1v63.8l5.4,5.2c6.5,6.5,11.6,6.7,19.2,0.9
	l5.6-4.3V85.3c0-59.1-0.4-65.8-3.7-69.6C506.6,10.3,500.4,8.6,494.1,10.9z"/>
<path class="st0" d="M314.6,112.3c-2.4,2.4-4.3,6.7-4.3,9.5c0,7.1,25.2,61.9,30.6,66.4c5.6,5.4,14.4,5.2,19.8-0.4
	c0.4-0.4,0.8-0.9,1.1-1.3c2.6-3.2,4.5-6.9,4.5-8.4c0-5-28.2-64.7-31.9-67.5C329.2,106.7,319.5,107.3,314.6,112.3z"/>
<path class="st0" d="M664.4,112.7c-2.4,2.8-10.3,18.3-17.7,34.5c-12.5,27.6-13.4,30-10.6,35.6c3.9,8,13.2,11.2,20.5,7.1
	c6.5-3.7,32.8-57.6,33-67.5C689.7,109.5,673.1,103.2,664.4,112.7z"/>
<path class="st0" d="M140.4,168.2c-6,2.6-9.9,11-8.4,17.7c0.9,2.8,21.6,23.1,49.1,47.9c50.9,45.7,54.5,48.1,64.4,39
	c3.2-3,4.3-6.2,3.9-11.6c-0.6-6.9-4.5-11.2-39.4-42.9c-44-40.1-58.6-52.2-62.1-51.9C145.4,166.6,142.8,167.2,140.4,168.2z"/>
<path class="st0" d="M842.5,172c-4.1,3.2-26.5,23.3-49.8,44.4c-38.8,35.1-42.7,39.2-42.7,45.5c0,10.1,10.3,18.1,19.2,14.7
	c5.2-1.9,96.6-84.1,98.1-88.2c3.5-9.1-1.9-18.8-11.9-21.1C851.3,166.1,848.1,167.4,842.5,172z"/>
<path class="st0" d="M457.9,221.1C285,248.2,177.1,424,231.8,588.3c29.1,87.1,101.3,157.4,187.3,182.4
	c42.9,12.5,97.7,15.1,136.7,6.7c112.7-24.6,196.8-108.7,221.4-221.2c5.6-25.9,5.6-86.2,0-112.1c-19.4-89.2-76.1-160.8-157.6-199.6
	C571.3,221.8,510.3,212.7,457.9,221.1z"/>
<path class="st0" d="M102.5,338.8c-6.7,5.2-7.8,16.6-1.7,22c3.2,2.8,55,23.9,62.9,25.4c12.5,2.6,22.4-9.7,16.8-20.9
	c-2.4-5-8.2-8-35.1-18.3c-17.7-6.9-33.4-12.7-34.7-12.7S105.7,336.1,102.5,338.8z"/>
<path class="st0" d="M870.1,340.6c-40.5,15.3-48.3,19.4-51.1,26.1c-2.4,5.6-2.2,7.3,1.3,12.1c7.5,9.9,10.8,9.7,44-2.8
	c17-6.5,32.8-13.4,34.9-15.3c6-5.4,5-16.6-1.7-22C890.3,333.1,890.6,333.1,870.1,340.6z"/>
<path class="st0" d="M14.7,489.1c-3.2,2.8-4.7,6.4-4.7,11.2s1.5,8.4,4.7,11.2c4.5,3.7,10.1,3.9,70.1,3.9h65.3l4.5-5
	c6-6.5,6-14.7-0.2-20.5c-5-4.7-6.2-4.7-69.8-4.7C24.9,485.1,19.3,485.4,14.7,489.1z"/>
<path class="st0" d="M844.9,491.6c-5.7,5.7-5.6,15,0.1,20.6c0.2,0.2,0.3,0.3,0.5,0.5c5,4.7,6.2,4.7,70.9,4.7c63.2,0,66-0.2,69.6-4.3
	c5.6-6.2,5.2-17-0.9-22c-4.5-3.7-10.1-3.9-70.5-3.9C852,487.2,849,487.5,844.9,491.6z"/>
<path class="st0" d="M134.6,626.6c-16.6,6.4-31.9,13.3-33.8,15.3c-5,4.5-5,16.2,0,20.5c7.5,6.7,11.4,6,44.4-6.9
	c33.4-13.2,37.9-16.4,37.9-27.2c0-4.5-9.7-13.8-14.4-13.8C166.5,614.7,151.2,620.1,134.6,626.6z"/>
<path class="st0" d="M825.9,616.7c-6.7,2.8-9.9,12.1-6.7,19.6c1.9,5.2,6.9,7.8,32.5,18.1c32.3,12.7,42,14.2,47.6,8
	c5-5.4,4.5-16.2-0.4-20.7c-3.7-3.2-62.9-27.4-66.6-27C830.1,615.1,828,615.8,825.9,616.7z"/>
<path class="st0" d="M230.5,723.8c-3.4,1.3-83,72-93.3,83c-4.5,4.7-5.8,8.2-5.4,12.9c0.9,8.4,9.9,15.7,17.2,14
	c2.6-0.9,26.5-20.9,53-44.6c44.6-40.3,47.9-43.8,47.9-50.7C249.9,727.8,239.8,720.2,230.5,723.8z"/>
<path class="st0" d="M755.8,726.6c-4.3,3.5-5.8,6.5-5.8,11.9c0,6.7,3.5,10.3,47.4,50c26.1,23.5,49.8,43.5,52.8,44.6
	c8,3,17-4.1,17.9-14.2c0.7-7.8,4.3-4.1-88-87.3C769.6,722.2,763.2,720.9,755.8,726.6z"/>
<path class="st0" d="M340,814.2c-5.2,6-29.8,60.6-29.8,66c0,6.5,8.4,14.4,15.3,14.4c3,0,7.5-2.2,9.9-5c4.3-4.7,30.8-61,30.8-65.5
	c0-1.3-1.9-4.7-4.5-8C356.4,809.6,345.2,808.4,340,814.2z"/>
<path class="st0" d="M639.7,814.2c-7.1,8.2-6.5,11.4,8.2,43.1c14.4,30.8,19.2,37.3,27.8,37.3c6.5,0,14-7.8,14-14.2
	c0-6-24.1-60.1-29.5-66C655.6,809.6,644,809.6,639.7,814.2z"/>
<path class="st0" d="M489.6,845.8c-4.7,5-4.7,6.2-4.7,69.8c0,59.7,0.2,65.3,3.9,69.8c2.8,3.2,6.5,4.7,11.2,4.7s8.4-1.5,11.2-4.7
	c3.7-4.5,3.9-10.1,3.9-70.1V850l-5-4.5C503.6,839.4,495.4,839.4,489.6,845.8z"/>
</svg>
