<svg id="Layer_1" data-name="Layer 1" xmlns="http://www.w3.org/2000/svg" viewBox="0 0 990 990"><path d="M500,10C229.3,10,10,229.3,10,500S229.3,990,500,990,990,770.7,990,500,770.7,10,500,10ZM786.4,750.9c-.9,1.1-5.7,7-7.4,8.7A379.3,379.3,0,0,1,500,881.1c-210.6,0-381.1-170.5-381.1-381.1A380.14,380.14,0,0,1,242.2,219.3s6.1-5.9,7.8-7.2a33.25,33.25,0,0,1,20-6.8A32.65,32.65,0,0,1,302.7,238c0,2.4-2.8,15.9-2.8,15.9a386.93,386.93,0,0,0-6.8,71.9c0,210.6,170.5,381.1,381.1,381.1a385.81,385.81,0,0,0,69.3-6.3l10.5-2.4a44.12,44.12,0,0,1,7.4-.8,32.5,32.5,0,0,1,25,53.5Z" transform="translate(-5 -5)" style="fill:#141852;stroke:#141852;stroke-miterlimit:10;stroke-width:10px"/></svg>