<?xml version="1.0" encoding="utf-8"?>
<!-- Generator: Adobe Illustrator 25.0.0, SVG Export Plug-In . SVG Version: 6.00 Build 0)  -->
<svg version="1.1" id="Layer_1" xmlns="http://www.w3.org/2000/svg" xmlns:xlink="http://www.w3.org/1999/xlink" x="0px" y="0px"
	 viewBox="0 0 1000 1000" style="enable-background:new 0 0 1000 1000;" xml:space="preserve">
<style type="text/css">
	.st0{fill:none;stroke:#FF8100;stroke-width:10;stroke-miterlimit:1;}
</style>
<g>
	<path class="st0" d="M486.2,163.4v145.1h27.1V18.2h-27.1L486.2,163.4L486.2,163.4z"/>
	<path class="st0" d="M160.4,136.1c-9.9,9.9-13.2,15.8-10.7,20.7c7.4,14.3,151,216.7,153.8,216.7c1.7,0,9.5-6.4,17.3-14.3
		c13.6-13.3,14-14.8,7.8-23.2c-3.7-5.5-38.8-55.3-77.9-112.1c-39.2-56.3-72.6-102.2-73.8-102.2C175.7,121.8,168.2,128.2,160.4,136.1
		z"/>
	<path class="st0" d="M757.2,212.2c-39.4,57.1-74.7,107.3-78.4,112.7c-6.2,8.4-5.8,9.9,7.9,23.3c7.9,7.9,15.8,14.4,17.4,14.4
		c3.3,0,152.3-211,155.1-220.5c1.7-5-22.4-32.8-28.6-32.8C829.8,109.4,796.6,155.6,757.2,212.2z"/>
	<path class="st0" d="M465.9,365.2c-39,5.1-86.2,24.5-119.3,49.1c-20.9,15.8-51.8,48.8-66.1,70.8c-14.9,23.1-28.5,54.1-35.5,81.5
		c-7.9,30.2-10.3,90-4.6,119.8c2.2,11.6,3.8,21.1,3.8,21.1c-62.1,16.1-103.3,26.8-103.8,27.6c-0.5,0.6,0.5,6.5,2.4,13.5
		c2.7,9.6,4.9,12.4,8.9,11.8c2.7,0,24.4-5.6,48-11.8c101.1-27,214.4-39.5,334-35.8c101.9,2.8,185.4,14.1,267,36.1
		c23,6.2,44.5,11.6,47.2,11.6c4.1,0.6,6.2-2.3,9-11.8c1.9-7.1,3-13,2.4-13.5c-0.5-0.8-41.8-11.6-103.8-27.6c0,0,1.6-9.6,3.8-21.1
		c5.7-29.9,3.2-89.7-4.6-119.8c-11.9-45.7-32-81.8-65.1-118.2c-43.4-47.1-97.1-75.3-158.6-83.2C503.5,361.8,493.2,361.8,465.9,365.2
		z"/>
	<path class="st0" d="M13.1,508.1c-0.8,4.5-1.9,11.7-2.7,15.9c-1.1,6.2,0,8.1,4.9,9.4c22.5,6.2,138,28.6,139.3,27.3
		c2.4-3.2,4.3-31.5,2.2-31.5c-1.4,0-33.1-6.5-71-14.6c-37.7-8.1-69.2-14.6-70-14.6C15.3,500,13.9,503.6,13.1,508.1z"/>
	<path class="st0" d="M907.8,515.2c-37.1,8.1-68,14.9-68.3,15.2c-1.9,2,5.7,31.1,8.1,31.1c1.9,0,34.4-6.5,72.4-14.6
		s69.4-14.6,70-14.6c0.3,0,0-3.9-0.8-9.1c-1.1-4.9-2.2-12-3-16.2s-3-7.2-6-6.8C977.7,500.6,945.2,507.5,907.8,515.2z"/>
	<path class="st0" d="M416.5,771.6l-11.7,1.3v30.5h90c90.8,0,133.4,2.9,209.6,14.6c22.2,3.6,40.9,5.5,41.5,4.9
		c0.8-0.6,1.9-7.8,2.4-15.6c1.6-16.6,3.8-15.2-34.4-21.7c-57.5-9.4-110.6-13.3-195.2-14.6C468.8,770.6,422.7,770.6,416.5,771.6z"/>
	<path class="st0" d="M303.2,782.6c-10.3,1.6-27.1,4.5-36.9,6.5l-17.9,3.2l2.2,14.9c1.4,8.4,2.7,15.6,3.2,15.9
		c0.8,1,89.5-12,90.8-13.3c0.3-0.3-0.3-7.5-1.1-15.6c-1.9-14.9-1.9-15.2-11.7-14.9C326.5,779.7,313.8,781,303.2,782.6z"/>
	<path class="st0" d="M361.5,870.6c-24.4,1.6-45,3.6-45.5,3.9c-0.5,0.6,0,8.4,0.8,16.9l1.9,15.9l31.5-2.6
		c17.6-1.6,76.5-2.9,131.2-3.2l99.8-0.6v-34.1l-87.3,0.3C445.5,867.3,386.1,869,361.5,870.6z"/>
	<path class="st0" d="M640.7,888.1V905l20.1,1.3l20.1,1l1.6-14.3c0.8-8.1,0.8-15.6-0.3-16.9c-1.4-1.3-11.1-2.9-21.7-3.6l-19.8-1.6
		L640.7,888.1L640.7,888.1z"/>
	<path class="st0" d="M396.7,973.8V990h206v-32.5h-206V973.8z"/>
</g>
</svg>
